<?xml version="1.0" encoding="UTF-8"?>
<!DOCTYPE svg PUBLIC "-//W3C//DTD SVG 1.1//EN" "http://www.w3.org/Graphics/SVG/1.1/DTD/svg11.dtd">
<!-- Creator: CorelDRAW Home & Student X8 -->
<svg xmlns="http://www.w3.org/2000/svg" xml:space="preserve" width="1.8in" height="1in" version="1.1" style="shape-rendering:geometricPrecision; text-rendering:geometricPrecision; image-rendering:optimizeQuality; fill-rule:evenodd; clip-rule:evenodd"
viewBox="0 0 1800 1000"
 xmlns:xlink="http://www.w3.org/1999/xlink">
 <defs>
  <style type="text/css">
   <![CDATA[
    .str2 {stroke:gray;stroke-width:50}
    .str4 {stroke:black;stroke-width:40}
    .str3 {stroke:black;stroke-width:40}
    .str6 {stroke:#820000;stroke-width:40}
    .str5 {stroke:#C26D6D;stroke-width:32}
    .str0 {stroke:black;stroke-width:20}
    .str1 {stroke:white;stroke-width:3}
    .fil2 {fill:none}
    .fil0 {fill:#C9C9C9}
    .fil3 {fill:red}
    .fil1 {fill:white}
   ]]>
  </style>
 </defs>
 <g id="Layer_x0020_1">
  <metadata id="CorelCorpID_0Corel-Layer"/>
  <path class="fil0 str0" d="M1596 899c0,0 101,2 104,-99l-1 -597c0,-40 -15,-65 -34,-80l-765 527 -766 -527c-18,15 -33,38 -34,77l0 595c0,100 91,104 102,104l1394 0z"/>
  <path class="fil1 str1" d="M1070 533l595 -410c-27,-22 -62,-23 -68,-24l-1394 0 -1 0c-5,1 -40,2 -68,24l585 403c34,-10 89,-22 108,-26 70,-15 126,13 161,14 28,1 56,8 82,19z"/>
  <polyline class="fil2 str2" points="117,162 900,702 1683,162 "/>
  <polyline class="fil2 str3" points="134,123 900,650 1665,123 "/>
  <g id="Sides">
   <line class="fil2 str4" x1="100" y1="200" x2="100" y2= "800" />
   <line class="fil2 str4" x1="200" y1="899" x2="1601" y2= "899" />
   <line class="fil2 str3" x1="1600" y1="99" x2="200" y2= "99" />
   <line class="fil2 str4" x1="1700" y1="200" x2="1700" y2= "800" />
  </g>
  <g id="Corners">
   <path class="fil2 str4" d="M203 99c0,0 -103,-1 -103,104"/>
   <path class="fil2 str4" d="M1596 99c0,0 103,-1 103,104"/>
   <path class="fil2 str4" d="M203 899c0,0 -103,2 -103,-104"/>
   <path class="fil2 str4" d="M1596 899c0,0 104,2 104,-104"/>
  </g>
 </g>
 <g id="Layer_x0020_2">
  <metadata id="CorelCorpID_1Corel-Layer"/>
  <g id="Fish_x0020_shadow">
   <path class="fil2 str5" d="M1129 697c0,0 101,-76 141,-156"/>
   <path class="fil2 str5" d="M1129 600c0,0 101,76 141,155"/>
   <path class="fil2 str5" d="M988 549c96,3 193,84 193,101 0,11 -89,84 -153,90 -33,4 -91,23 -154,21 -44,-1 -127,-27 -176,-29 -49,-2 -116,-79 -116,-85 0,-5 51,-50 113,-78 21,-10 107,-29 132,-34 70,-15 126,13 161,14z"/>
  </g>
  <g id="Fish">
   <path class="fil2 str6" d="M1129 662c0,0 101,-76 141,-156"/>
   <path class="fil2 str6" d="M1129 565c0,0 101,75 141,155"/>
   <path class="fil3 str6" d="M988 514c96,3 193,84 193,101 0,11 -89,84 -153,90 -33,4 -91,23 -154,21 -44,-1 -127,-27 -176,-29 -49,-2 -116,-80 -116,-85 0,-5 51,-50 113,-78 21,-10 107,-29 132,-34 70,-15 126,13 161,14z"/>
  </g>
 </g>
</svg>
